<svg height='200' width='200'  fill="#000000" xmlns="http://www.w3.org/2000/svg" xmlns:xlink="http://www.w3.org/1999/xlink" version="1.1" x="0px" y="0px" viewBox="0 0 100 100" enable-background="new 0 0 100 100" xml:space="preserve"><g><g><polygon fill="none" points="94.8,92.9 95,92.9 94.8,92.9   "></polygon><path d="M63.4,70.7c0.2-0.3,0.5-0.8,1.1-1.4c1.6-1.6,3.5-2.4,5.6-2.4c0.7,0,1.4,0.1,2.1,0.3l0.3,0.1c0,0,2,0.6,3.3,1.7    c-0.4-2.4-3.5-5.6-14.9-8.5l0.1-0.1l0.3-0.2l0.5-0.4l0.3-0.2l0.4-0.4l0.3-0.3l0.4-0.4l0.3-0.3l0.4-0.4l0.4-0.3l0.4-0.4l0.4-0.4    l0.4-0.4l0.3-0.4l0.3-0.4l0.3-0.4l0.3-0.4l0.3-0.4l0.3-0.4l0.3-0.5L68,53l0.3-0.5l0.3-0.4l0.3-0.5l0.2-0.4l0.3-0.5l0.2-0.4    l0.3-0.5l0.1-0.2l0.3,0.3c0.8,0.4,2.2-1,3.1-3.1c0.9-2.1,0.9-4,0.1-4.4c-0.5-0.2-1.3,0.2-2,1.1l-0.7-0.1l0.7,0.1    c1.9-16.8-5-25.5-5-25.5s-0.5-8.7-3.6-7.2c-2.7,1.3-3.3,1.1-3.3,1.1s-1.6-7.9-4.1-3.7c-1.3,2.2-8.6,2.5-14.7,7.8    c-10,8.7-6.8,24.8-6.3,27.1c-0.6-0.7-1.1-1.1-1.6-1c-0.9,0.3-1,2.2-0.3,4.3c0.7,2.1,2,3.6,2.8,3.3c0.3-0.1,0.5-0.4,0.6-0.9    c2.1,5,6,9.3,9.8,11.9c-1.4,0.3-2.2,0.5-2.2,0.5s-15.6,5.6-10.5,11c5,5.3,17.1,18.8,17.1,18.8s1.7,2.2,3.7,1.7v0l0.5-0.1l0.6-0.1    l0.3-0.1l0.4-0.2l0.4-0.2l0.3-0.2l0.7-0.6c0.6-0.6,1.4-1.4,2.4-2.4c0-0.5-0.1-1-0.1-1.6C59.5,82,61.5,74,63.4,70.7z"></path><path d="M27.7,68.6c1-4.1,6.2-7.2,10.1-9c-1.8-1.9-3.4-4-4.6-6.2C31,53,29.2,51,28.2,47.9c-0.4-1.2-1.2-4.2,0-6.5    c0.3-0.6,0.7-1,1.1-1.4c-0.5-4.1-0.6-10.3,1.5-16.2c-3.9-0.1-8.1,0.7-11,2.4c-2.9,1.7-5.1,2.9-8.3,8.5c-3.1,5.4-0.7,16.2,1.9,20.2    c2.6,4,0.4,5.2-2,6.9C9.1,63.4,5,62.1,5,62.1s0.5,2.3,2,3.3C9.7,67,11,66,9.7,67c0,0-1.6,1,1.8,3.5l2.2-0.2    c-1.6,1.5-2.5,3.2-0.9,4.9c4.2,4.5,14.7,15.9,14.7,15.9s1.7,2.2,4.1,1.2l-0.2,0.2c0.7-0.1,1.4-0.5,2.2-1.2c1.2-1.1,3.3-3.5,5.7-6    c-3.5-3.9-7.5-8.2-9.8-10.7C27.8,72.9,27.2,70.8,27.7,68.6z"></path></g><g><path d="M91.4,73c0,0-0.3-0.6-0.7-1c-0.7-0.7-2.1-1.5-4.6-1.5c0,0,0,0,0,0s-1.4,0.8-1.8,1c-0.4,0.3-1.3,0.7-2.3,0.7    c-1,0-3.1,0-3.2,0c0,0-2.2-0.1-3.2-0.1c-1,0-4.1-1.9-4.1-1.9l0,0c0,0,0,0,0,0c-2.4-0.6-3.9,0.6-4.6,1.3c-0.4,0.4-0.6,0.7-0.6,0.7    c-1.6,2.6-3.8,10-3.7,15.1c0,3.1,0.8,4.4,1.5,5.1c0.4,0.4,0.8,0.5,0.8,0.5v0c0.9,0.3,2.2-0.2,3.1-0.7c0.9-0.5,1.5-1.1,1.5-1.1l0,0    c0.1-0.1,1.4-1.4,3.2-2.6c0.9-0.6,3.7-0.9,6-0.9c2.2,0,4.9,0.2,6.3,1.1c1.7,1.1,3.1,2.4,3.2,2.5c0,0,2.6,2,3.7,1.7v0    c0,0,0.8-0.1,1.3-0.5c0.6-0.6,1.6-1.7,1.6-4.7C94.7,82.6,92.9,75.3,91.4,73z M68.9,78.3c-1.1,0-1.9-0.9-1.9-1.9    c0-1.1,0.9-1.9,1.9-1.9c1.1,0,1.9,0.9,1.9,1.9C70.8,77.4,70,78.3,68.9,78.3z M76.2,83.2c-0.1-0.1-0.3-0.1-0.4-0.1    c-0.6,0-1.2,0.5-1.2,1.2c0,0.1,0,0.3,0.1,0.4c-0.3,0.1-0.7,0.2-1,0.2c-0.4,0-0.8-0.1-1.2-0.3c0-0.1,0-0.2,0.1-0.3    c0-0.6-0.5-1.2-1.2-1.2l-0.2,0c-0.1-0.3-0.2-0.6-0.2-1c0-0.3,0.1-0.7,0.2-1l0.2,0c0.7,0,1.2-0.5,1.2-1.2c0-0.1,0-0.2-0.1-0.3    c0.4-0.2,0.8-0.3,1.2-0.3c0.4,0,0.7,0.1,1,0.2c-0.1,0.1-0.1,0.3-0.1,0.4c0,0.6,0.5,1.2,1.2,1.2c0.1,0,0.3,0,0.4-0.1    c0.1,0.3,0.2,0.7,0.2,1C76.4,82.6,76.4,82.9,76.2,83.2z M78.7,72.2L78.7,72.2L78.7,72.2L78.7,72.2z M83.4,84.1    c-1.1,0-1.9-0.9-1.9-1.9c0-1.1,0.9-1.9,1.9-1.9c1.1,0,1.9,0.9,1.9,1.9C85.3,83.2,84.5,84.1,83.4,84.1z M85.9,77.7    c-0.6,0-1.1-0.5-1.1-1.1c0-0.6,0.5-1.1,1.1-1.1c0.6,0,1.1,0.5,1.1,1.1C87,77.2,86.5,77.7,85.9,77.7z M88.4,80.1    c-0.6,0-1.1-0.5-1.1-1.1c0-0.6,0.5-1.1,1.1-1.1c0.6,0,1.1,0.5,1.1,1.1C89.5,79.6,89,80.1,88.4,80.1z M88.4,75.2    c-0.6,0-1.1-0.5-1.1-1.1c0-0.6,0.5-1.1,1.1-1.1c0.6,0,1.1,0.5,1.1,1.1C89.5,74.7,89,75.2,88.4,75.2z M90.9,77.7    c-0.6,0-1.1-0.5-1.1-1.1c0-0.6,0.5-1.1,1.1-1.1c0.6,0,1.1,0.5,1.1,1.1C92,77.2,91.5,77.7,90.9,77.7z"></path></g></g></svg>