<?xml version="1.0" encoding="utf-8"?>
<!-- Svg Vector Icons : http://www.onlinewebfonts.com/icon -->
<!DOCTYPE svg PUBLIC "-//W3C//DTD SVG 1.1//EN" "http://www.w3.org/Graphics/SVG/1.1/DTD/svg11.dtd">
<svg version="1.1" xmlns="http://www.w3.org/2000/svg" xmlns:xlink="http://www.w3.org/1999/xlink" x="0px" y="0px" viewBox="0 0 1000 1000" enable-background="new 0 0 1000 1000" xml:space="preserve">
<metadata> Svg Vector Icons : http://www.onlinewebfonts.com/icon </metadata>
<g><path d="M866.7,552.5c0-15,5-30,5-50s0-35-5-50l105-85c10-10,10-20,5-30l-100-175c-5-5-15-10-30-5l-125,50c-25-20-55-35-85-50l-20-130c5-15-10-25-20-25H396.9c-10,0-25,10-25,20l-20,135c-30,10-55,30-85,50l-120-50c-15-5-25,0-35,10l-100,175c-5,5,0,20,10,30l105,80c0,15-5,30-5,50s0,35,5,50l-105,85c-10,10-10,20-5,30l100,175c5,5,15,10,30,5l125-50c25,20,55,35,85,50l20,130c0,10,10,20,25,20h199.9c10,0,25-10,25-20l20-130c30-15,60-30,85-50l125,50c10,5,25,0,30-10l100-175c5-10,5-25-5-30L866.7,552.5z M496.8,677.5c-95,0-175-80-175-175s80-175,175-175s175,80,175,175S591.8,677.5,496.8,677.5z"/></g>
</svg>