<?xml version="1.0" encoding="utf-8"?>
<!-- Svg Vector Icons : http://www.onlinewebfonts.com/icon -->
<!DOCTYPE svg PUBLIC "-//W3C//DTD SVG 1.1//EN" "http://www.w3.org/Graphics/SVG/1.1/DTD/svg11.dtd">
<svg version="1.1" xmlns="http://www.w3.org/2000/svg" xmlns:xlink="http://www.w3.org/1999/xlink" x="0px" y="0px" viewBox="0 0 1000 1000" enable-background="new 0 0 1000 1000" xml:space="preserve">
<metadata> Svg Vector Icons : http://www.onlinewebfonts.com/icon </metadata>
<g><g><g><path d="M757.5,417.7C631.2,146,565.6,42.9,359.3,47.1c-73.5,1.5-55.8-53.2-111.8-32.4c-56,20.8-7.9,51.2-65.2,98.1C21.6,244.7,36.5,366.7,111,657.5C142.4,780,35.3,786,77.7,904.8c30.9,86.6,259,122.8,499.6,33.5C817.9,849,969.8,671.8,938.9,585.2C896.5,466.5,810.7,532,757.5,417.7z M551.2,865.1c-214.9,79.7-391.5,32.8-399,12c-12.9-36,69.4-155.9,315.1-247.1C713,538.9,850,572.7,864.4,612.9C872.9,636.6,766.1,785.4,551.2,865.1z M482.1,671.7c-112.4,41.7-190.4,89.4-241,132.3c35.6,32.3,102.2,40.2,168.6,15.5c84.6-31.4,136.5-103.4,115.9-160.8c-0.2-0.7-0.6-1.3-0.9-2C511,661.3,496.7,666.3,482.1,671.7z"/></g></g><g></g><g></g><g></g><g></g><g></g><g></g><g></g><g></g><g></g><g></g><g></g><g></g><g></g><g></g><g></g></g>
</svg>