<svg height='200' width='200'  fill="#000000" xmlns="http://www.w3.org/2000/svg" xmlns:xlink="http://www.w3.org/1999/xlink" version="1.1" x="0px" y="0px" viewBox="0 0 100 100" enable-background="new 0 0 100 100" xml:space="preserve"><g><path d="M41,83v-5V64.1V60h2.8l0.3-0.5l0.4-0.5l0.3-0.4l0.4-0.4l0.4-0.4l0.4-0.4l0.4-0.4l0.4-0.4l0.4-0.4l0.4-0.4l0.4-0.4l0.3-0.4   l0.4-0.5l0.3-0.4l0.3-0.5l0.3-0.4l0.3-0.5l0.3-0.5l0.3-0.5l0.2-0.5l0.3-0.5l0.2-0.5l0.3-0.6l0.1-0.2l0.4,0.4c0.9,0.4,2.3-0.9,3.2-3   l0.2-0.3l0.3-0.6l0,0c0.6-2.3,0.5-3.4-0.2-3.8c-0.6-0.2-1.3,0.2-2.1,1.1l-0.7-0.2l0.7,0.2c2-17.6-5.2-26.7-5.2-26.7   S47.4,7.3,44.1,9c-2.8,1.4-3.5,1.2-3.5,1.2S39,1.9,36.4,6.3c-1.4,2.3-9,2.7-15.4,8.2c-10.5,9.1-7.1,26-6.6,28.4   c-0.6-0.8-1.2-1.2-1.7-1c-0.9,0.3-1,2.3-0.3,4.5c0.7,2.2,2.1,3.8,3,3.5c0.3-0.1,0.5-0.4,0.7-0.9c2.2,5.3,6.3,9.7,10.2,12.4   c-1.4,0.3-2.3,0.5-2.3,0.5s-16.3,5.9-11,11.5c5.2,5.6,19,19.7,19,19.7s1,2.3,5,1.8v0l-0.6-0.1l0-0.1l0.1-0.1l0.3-0.2l0.3-0.2   l0.3-0.2l0.7-0.4c1.9-1.8,6.1-6.6,10-10.6h-2H41z"></path><path d="M55.4,45.7C55.4,45.7,55.4,45.6,55.4,45.7L55.4,45.7L55.4,45.7z"></path><g><polygon points="74.2,64.4 74.2,59.6 74.2,57.5 74.2,50.5 68.8,50.5 60.3,50.5 60.3,64.4 46.4,64.4 46.4,78.3 57.6,78.3     60.3,78.3 60.3,92.2 74.2,92.2 74.2,78.3 88.1,78.3 88.1,64.4   "></polygon></g></g></svg>